PathFileType	4	(X/Y/Z)	53_1_15_p1_0-224_filt_butterworth.trc
DataRate	CameraRate	NumFrames	NumMarkers	Units	OrigDataRate	OrigDataStartFrame	OrigNumFrames
50.0	50.0	5	27	m	50.0	0	224
Frame#	Time	RHip			RKnee			RAnkle			RBigToe			RSmallToe			RHeel			LHip			LKnee			LAnkle			LBigToe			LSmallToe			LHeel			Neck			Head			Nose			RShoulder			RElbow			RWrist			RThumb			RIndex			RPinky			LShoulder			LElbow			LWrist			LThumb			LIndex			LPinky			
		X1	Y1	Z1	X2	Y2	Z2	X3	Y3	Z3	X4	Y4	Z4	X5	Y5	Z5	X6	Y6	Z6	X7	Y7	Z7	X8	Y8	Z8	X9	Y9	Z9	X10	Y10	Z10	X11	Y11	Z11	X12	Y12	Z12	X13	Y13	Z13	X14	Y14	Z14	X15	Y15	Z15	X16	Y16	Z16	X17	Y17	Z17	X18	Y18	Z18	X19	Y19	Z19	X20	Y20	Z20	X21	Y21	Z21	X22	Y22	Z22	X23	Y23	Z23	X24	Y24	Z24	X25	Y25	Z25	X26	Y26	Z26	X27	Y27	Z27	
0	0.0	0.4020352906662341	0.6492707348664484	0.7020965531467066	0.3973395977200217	0.7998697234569966	1.1402608296723016	0.37515889033592303	0.9023860918067639	1.5326970700278504	0.3222865620456416	0.7406069365168506	1.5698084387269935	0.3737551062613121	0.7438517145814862	1.5755854295002956	0.3408427630077054	0.9828846944401775	1.603141100316499	0.2065313639341855	0.6318347999423125	0.6902846566115147	0.16015156044737727	0.7950394004925442	1.1440798710129947	0.15174185136862117	0.8974059498029578	1.5506446887268628	0.16840593115572697	0.7302795793451318	1.5576913936950296	0.11417710566500504	0.7614155968280367	1.5509335749521287	0.17734392166340815	0.9592098725768714	1.589382076813876	0.3164357792930256	0.5443786112996445	0.16306106698589032	0.3276052002167925	0.45050497228399633	-0.051710575755513716	0.32277245770516433	0.4196657230706289	0.07054055215094039	0.46578379821990884	0.5709900947363493	0.22842729397321673	0.49794562337768195	0.6140991346046213	0.4984678538509294	0.34581643094938974	0.4187761522779474	0.6019889676301773	0.2612649191760377	0.4206427241925388	0.6324236749280556	0.2440213630809073	0.4041731311988634	0.6447775722903797	0.2612432586544154	0.39557856304520456	0.6651934371349928	0.1679482041556367	0.6033649586602527	0.2269568952777053	0.1302765028610202	0.6192253783010541	0.47117900128535617	0.2012714579480928	0.47635939082411194	0.5975809849316364	0.24549799542122527	0.41162373478347636	0.6187589820689697	0.24628069294595617	0.3928012774436866	0.6394168210200069	0.26181740171118256	0.42645289658603674	0.6658561540068239
1	0.02	0.4020723692074406	0.6488800133084058	0.7021145122207118	0.3971653271246776	0.7991006395967601	1.1384730745295213	0.37511273913996845	0.9027138735900516	1.5326083283023544	0.3248518682693862	0.749398578976737	1.57335105757448	0.376484075300426	0.753354307564209	1.57965775097516	0.33770591630047336	0.9963033452667696	1.605449301652644	0.20676297609046537	0.6328430274202312	0.6937492443142695	0.16291093668953022	0.7820987253326914	1.1378717253393635	0.15237763269321222	0.8956102226926965	1.545512592513571	0.1643317948821876	0.7249165860162653	1.5525212024985149	0.11164953483333298	0.7723674379584344	1.5524091813806202	0.1777161861258264	0.9590115371369512	1.5891365267481967	0.31642507569030265	0.5442740447137732	0.1630878732061461	0.32756487779899257	0.44987188472550954	-0.05346695736282319	0.3204016574338849	0.41126989326442115	0.07113726278553177	0.4660676774352222	0.571417974772825	0.227100413627835	0.49768295606077995	0.6145029008421463	0.5007302608182284	0.34703774837237	0.4230630200174804	0.6022217074711581	0.26024894807702426	0.42715433039426143	0.6351271921604644	0.24432358989277736	0.4214761536181168	0.6471878092387999	0.2573757484692355	0.41023960644030344	0.664256234363898	0.1679432244818194	0.6033588870293293	0.226930129428606	0.1301300673926165	0.6194748892431305	0.47223359369811	0.200997848969044	0.4771886369891967	0.5974716370649761	0.2481980646667649	0.4194874848528318	0.6172675752570526	0.2473190323982011	0.3974376186654798	0.6399443193806125	0.2618810081168198	0.4349848547447489	0.6669943814991144
2	0.04	0.402125319768483	0.6484698509056757	0.7030295439644401	0.39709176794671486	0.798035491882386	1.1374518548343766	0.37511200284993257	0.90282340686124	1.5325563028215803	0.3261696561822482	0.7538078625028565	1.575104984276533	0.3779455351364568	0.7577375684679508	1.5819785178393855	0.3371835010374269	0.9984090442692537	1.6049297565590899	0.2068655846820341	0.6333254695023853	0.6955359878548433	0.16434309951714024	0.7754178709937354	1.134589107401363	0.15285693928775562	0.8954157305940341	1.5441262287106827	0.16391660586894727	0.722832220828472	1.5499053632493063	0.11043150259594343	0.7779418643073355	1.5532024031265192	0.17769057868326288	0.9554297929153605	1.5877063500984034	0.3163617972818981	0.5443120793758583	0.1638548146538514	0.3275643290680854	0.4498453756304401	-0.05388086257217928	0.31917712041824653	0.40697824681916056	0.07145024229733182	0.46571719435006964	0.5705168636884922	0.22718232899784124	0.49754539327087954	0.6146813826110706	0.5019013614353339	0.3466922207341445	0.4278180398557833	0.6026313536209044	0.25910202859380244	0.43324374943899246	0.6368002411174217	0.24465829029022526	0.4304323747819446	0.6477638537675259	0.2546344769253315	0.42039465389426744	0.6642020947553429	0.16795367230537725	0.6033311942889634	0.22691007428587276	0.1290111427212706	0.6198334766496877	0.47266203918121696	0.2011517815492358	0.48093113741176435	0.5968126398371576	0.24955156872957204	0.42371619158966795	0.6165121948712513	0.24759874820155406	0.4053346727193725	0.6408140026629014	0.2618656277197917	0.44444692148709103	0.6681684468534352
3	0.06	0.4021751749144782	0.6480954832753814	0.7046436380101679	0.3971931425407808	0.7972965926708634	1.138111289107122	0.37514972693448856	0.9027350688584208	1.5325403359765286	0.3263114542863927	0.754151878685824	1.575221289331155	0.37825238330214306	0.757490641146849	1.582323147016392	0.3388102212458052	0.9911944789201457	1.6022229901335854	0.20687056798950604	0.6333270037720664	0.6957751396682753	0.16461120260478748	0.7742535172029019	1.1339816555278013	0.15307498808790015	0.8960506040146855	1.545266909610979	0.16609657076963882	0.7252730558239024	1.550709182530556	0.11039642241938069	0.778536543890835	1.5533496205160364	0.17670741780940807	0.949124798906064	1.5853159371417616	0.316260429304607	0.5444609974520516	0.16512321941931019	0.3275754367442274	0.45017002889899255	-0.053585962999157105	0.31899924873923224	0.40630733257670515	0.07152139123851999	0.4643628323197562	0.5670492298206258	0.22807338869193947	0.49751837865181303	0.6146721609752337	0.5021139062953343	0.34462731257305174	0.4311723511666989	0.6031158673086295	0.2582633735281984	0.43671915859746613	0.6370466565034103	0.2448983567234676	0.4316093821416697	0.6471426968689423	0.2534601078179709	0.42446052193950784	0.6647672482928991	0.16797306073495719	0.6032865669105685	0.22688693107584113	0.12723273506600732	0.6211599974973523	0.472187600360639	0.20207062096890924	0.48644620190778576	0.5957852265214918	0.24970191161211963	0.42449770854654	0.6164439845369072	0.2473469505059047	0.41392704610680087	0.6417563912092654	0.2617932785624567	0.4511000795155411	0.6689503377567761
4	0.08	0.40219057925437324	0.6478939651712783	0.7058780575888498	0.39736974487285737	0.7975553589236982	1.1403141029962702	0.3751842480931478	0.902589356684034	1.5325328578040875	0.32606412073257784	0.75326852431685	1.5748758052190022	0.37816975133222724	0.7561245911291103	1.581247695908698	0.34035861723832506	0.984387632251473	1.5999655111438937	0.20686019681210488	0.6331993414773203	0.6955454012694686	0.16452837572866114	0.7747228373526647	1.1341531744360875	0.15308950709108365	0.8962189810520174	1.5461445202336848	0.16792718762691214	0.72904040927286	1.5535477047281927	0.11066941040421878	0.7776903075284958	1.5533013878010506	0.1750231789424379	0.9439627508690339	1.5833441077960089	0.3161782137990307	0.5445788326960166	0.16604111945925668	0.3275675991930128	0.4503700874394139	-0.0537826883466406	0.31918606648425124	0.40664653763230385	0.07146972138357899	0.4625422258810298	0.5621367041729959	0.22865976722321713	0.49753045015526387	0.6146298226586382	0.5020407403503172	0.3425093677262151	0.4321846137605798	0.6037573799015445	0.2579535207874489	0.4368523378472686	0.636089698718051	0.24469176484735283	0.42939827986780243	0.6463573133234042	0.2533517833990882	0.42457326004325496	0.6652565833161208	0.1679778808810822	0.6032477395192681	0.22686636468593807	0.1259613787745698	0.6246919938681325	0.47142492478635833	0.20339429880698962	0.4902049522923806	0.5950519295603857	0.2495246109533631	0.4240789980635898	0.6165870674282985	0.2478160132790313	0.4190688846623212	0.642337430740815	0.2617372008152452	0.45287763161713973	0.6691294170893665
